<?xml version="1.0" encoding="UTF-8"?>
<svg width="60px" height="60px" viewBox="0 0 60 60" version="1.1" xmlns="http://www.w3.org/2000/svg" xmlns:xlink="http://www.w3.org/1999/xlink">
    <title>ins copy</title>
    <g id="ins-copy" stroke="none" stroke-width="1" fill="none" fill-rule="evenodd">
        <g id="instagram" transform="translate(16.000000, 16.000000)" fill="#FFFFFF" fill-rule="nonzero">
            <path d="M14.444397,-0.00111547494 C17.5852276,0.00090154624 18.0839683,0.0190118215 19.4617225,0.0821832082 C20.9287634,0.148833552 21.9303504,0.381743802 22.8070593,0.721953739 C23.726615,1.06802305 24.5597449,1.61074761 25.2482215,2.31204158 C25.9491492,3.00051815 26.4918738,3.83328186 26.8375769,4.75283755 C27.1785193,5.62954649 27.4114295,6.63113343 27.4784461,8.0981744 C27.5369412,9.38091105 27.5563761,9.90169667 27.5603729,12.5022171 L27.5603721,15.0576571 C27.5563702,17.6581776 27.5368946,18.1789632 27.4780798,19.4616998 C27.4114295,20.9287408 27.1781531,21.9303277 26.8375769,22.8070367 C26.1216345,24.658233 24.6582556,26.1216119 22.8070593,26.8375543 C21.9307166,27.1781304 20.9287634,27.4110407 19.4620887,27.4780572 C18.0384093,27.5429796 17.553321,27.5601303 14.1217428,27.5611388 L13.7803259,27.5611871 C10.037284,27.5611871 9.56816778,27.5450738 8.09819703,27.4780572 C6.63152224,27.4110407 5.62956912,27.1781304 4.75322637,26.8375543 C3.83330449,26.491485 3.00054078,25.9491266 2.31206421,25.2478326 C1.61113653,24.5597223 1.06877806,23.7265924 0.722708744,22.8070367 C0.382132619,21.9306939 0.148856182,20.9287408 0.0822058379,19.462066 C0.0186911504,18.0839685 0.000881263332,17.5852064 -0.00109686831,14.4443745 L-0.00109695771,13.1154998 C0.000879832912,9.9746693 0.0186682637,9.47592859 0.0818396504,8.0981744 C0.148489994,6.63113343 0.38140015,5.62954649 0.721976369,4.75283755 C1.06804568,3.83328186 1.61077024,3.00015196 2.31206421,2.31204158 C3.00017459,1.61074761 3.83330449,1.06838924 4.75286018,0.722319927 C5.62956912,0.381743802 6.63115606,0.148833552 8.09819703,0.0818170207 C9.47595121,0.0189889348 9.97469193,0.00090011582 13.1155225,-0.00111556434 L14.444397,-0.00111547494 Z M14.4138967,2.77998011 L14.0782996,2.77993711 C10.3982459,2.77993711 9.96245484,2.79385318 8.50932984,2.86013733 C7.16570193,2.92166077 6.43584356,3.14614805 5.95061409,3.33474671 C5.35185918,3.55557193 4.81023318,3.9078668 4.36601934,4.36563052 C3.90825562,4.81021055 3.55596074,5.35147036 3.33476934,5.95022527 C3.14617068,6.43582093 2.9216834,7.1656793 2.86052615,8.50930721 C2.79631337,9.91702205 2.78090317,10.3699928 2.78000274,13.7426465 L2.77995974,14.078277 C2.77995974,17.7579645 2.79424199,18.1937555 2.86052615,19.6472467 C2.9216834,20.9908746 3.14617068,21.7203668 3.33476934,22.2059626 C3.55596074,22.8047175 3.90788943,23.3459772 4.36565315,23.7905572 C4.81023318,24.2483209 5.3514929,24.6006159 5.95024781,24.821441 C6.43584356,25.0104059 7.16570193,25.2348931 8.50932984,25.2960504 C9.87163453,25.3581919 10.3394762,25.3743066 13.4249057,25.3760781 L14.7310296,25.3760781 C17.8167997,25.3743066 18.2849418,25.3581919 19.6469032,25.2960504 C20.9905311,25.2348931 21.7203894,25.0104059 22.2059851,24.821441 C23.4078894,24.357818 24.3578407,23.4078668 24.8214637,22.2059626 C25.0100623,21.7203668 25.2345496,20.9908746 25.296073,19.6472467 C25.3582144,18.2845987 25.3743292,17.8164137 25.3761008,14.7312444 L25.3761008,13.4252452 C25.3743292,10.3397754 25.3582144,9.8716119 25.296073,8.50930721 C25.2349158,7.1656793 25.0104285,6.43582093 24.8214637,5.95022527 C24.6006384,5.35183655 24.2483436,4.81021055 23.7905798,4.36563052 C23.3459998,3.9078668 22.80474,3.55557193 22.2059851,3.33474671 C21.7203894,3.14614805 20.9908972,2.92166077 19.6472693,2.86050352 C18.2391998,2.79629074 17.7862179,2.78088054 14.4138967,2.77998011 Z M14.0782996,7.00125061 C17.9865027,7.00125061 21.1549597,10.1693415 21.1549597,14.0779108 C21.1549597,17.9864801 17.9865027,21.1545709 14.0782996,21.1545709 C10.1697303,21.1545709 7.00127324,17.9864801 7.00127324,14.0779108 C7.00127324,10.1693415 10.1697303,7.00125061 14.0782996,7.00125061 Z M14.00375,9.41 C11.4666406,9.41 9.41,11.4666406 9.41,14.00375 C9.41,16.5408594 11.4666406,18.5975 14.00375,18.5975 C16.5408594,18.5975 18.5975,16.5408594 18.5975,14.00375 C18.5975,11.4666406 16.5408594,9.41 14.00375,9.41 Z M21.4347449,5.06765686 C22.348075,5.06765686 23.0885535,5.80813533 23.0885535,6.72146546 C23.0881873,7.63479558 22.348075,8.37527405 21.4347449,8.37527405 C20.5214148,8.37527405 19.7809363,7.63479558 19.7809363,6.72146546 C19.7809363,5.80813533 20.5214148,5.06765686 21.4347449,5.06765686 Z" id="Combined-Shape"></path>
        </g>
    </g>
</svg>