<?xml version="1.0" encoding="UTF-8"?>
<svg width="60px" height="60px" viewBox="0 0 60 60" version="1.1" xmlns="http://www.w3.org/2000/svg" xmlns:xlink="http://www.w3.org/1999/xlink">
    <title>mail</title>
    <g id="mail" stroke="none" stroke-width="1" fill="none" fill-rule="evenodd">
        <g id="message" transform="translate(15.000000, 19.000000)" fill="#FFFFFF" fill-rule="nonzero">
            <path d="M27.3632813,0.0356835938 L2.63671875,0.0356835938 C1.18283203,0.0356835938 0,1.21851563 0,2.67240234 L0,17.9525977 C0,19.4064844 1.18283203,20.5893164 2.63671875,20.5893164 L27.3632813,20.5893164 C28.817168,20.5893164 30,19.4064844 30,17.9525977 L30,2.67240234 C30,1.21851563 28.817168,0.0356835938 27.3632813,0.0356835938 Z M27.0191602,1.79349609 L26.6672461,2.08652344 L16.0461328,10.9307227 C15.4399219,11.4354492 14.5599609,11.4354492 13.9538672,10.9307227 L3.33275391,2.08652344 L2.98083984,1.79349609 L27.0191602,1.79349609 Z M1.7578125,3.06251953 L10.4116406,10.2685547 L1.7578125,16.0279102 L1.7578125,3.06251953 Z M27.3632812,18.8315039 L2.63671875,18.8315039 C2.21203125,18.8315039 1.85683594,18.5286914 1.77544922,18.1277344 L11.8210547,11.4421289 L12.8291016,12.281543 C13.4580469,12.8052539 14.229082,13.0671094 15.0000586,13.0671094 C15.7710352,13.0671094 16.5420117,12.8052539 17.1710156,12.281543 L18.1790625,11.4421289 L28.2246094,18.1276758 C28.1431641,18.52875 27.7879687,18.8315039 27.3632812,18.8315039 Z M28.2421875,16.0279102 L19.5883594,10.2686133 L28.2421875,3.06251953 L28.2421875,16.0279102 Z" id="Shape"></path>
        </g>
    </g>
</svg>