<?xml version="1.0" encoding="UTF-8"?>
<svg width="60px" height="60px" viewBox="0 0 60 60" version="1.1" xmlns="http://www.w3.org/2000/svg" xmlns:xlink="http://www.w3.org/1999/xlink">
    <title>phone</title>
    <g id="phone" stroke="none" stroke-width="1" fill="none" fill-rule="evenodd">
        <path d="M43.6723042,40.3296034 C43.6711625,40.3307451 43.6700208,40.3319906 43.6687753,40.3331323 L43.6687753,40.3243101 L42.322507,41.6616524 C40.5814192,43.4247438 38.0457103,44.1501365 35.635588,43.5747213 C33.2074062,42.9247843 30.8991026,41.8901993 28.7981727,40.5103029 C26.8462861,39.2628433 25.037423,37.8045849 23.4043812,36.1615793 C21.9018042,34.6700041 20.5519033,33.032188 19.3745024,31.2726254 C18.0866682,29.3792767 17.0673404,27.3167493 16.3454766,25.1436849 C15.5179539,22.5908505 16.2036986,19.7896452 18.1168713,17.9077135 L19.6933472,16.3312376 C20.131655,15.8909577 20.8438663,15.8894009 21.2840424,16.3277087 C21.2851841,16.3288504 21.2864296,16.3299921 21.2875713,16.3312376 L26.2650585,21.3087249 C26.7053384,21.7470327 26.7068953,22.459244 26.2685874,22.8994201 C26.2674457,22.9005618 26.266304,22.9017035 26.2650585,22.9029489 L23.3423144,25.8256931 C22.5036861,26.6551878 22.3982348,27.9733288 23.0943586,28.9256079 C24.1514661,30.3763933 25.3212903,31.7415515 26.5928294,33.0086275 C28.0105056,34.4324274 29.5516927,35.7276306 31.198331,36.8790839 C32.1497797,37.5427212 33.4396897,37.4308349 34.2627494,36.6133799 L37.0880341,33.7437765 C37.526342,33.3034967 38.2385533,33.3019398 38.6787293,33.7402476 C38.679871,33.7413893 38.6810127,33.742531 38.6822582,33.7437765 L43.6686715,38.739012 C44.1090551,39.177216 44.110612,39.8893236 43.6723042,40.3296034 Z" id="Path" fill="#FFFFFF" fill-rule="nonzero"></path>
    </g>
</svg>