<?xml version="1.0" encoding="UTF-8"?>
<svg width="60px" height="60px" viewBox="0 0 60 60" version="1.1" xmlns="http://www.w3.org/2000/svg" xmlns:xlink="http://www.w3.org/1999/xlink">
    <title>vk</title>
    <g id="vk" stroke="none" stroke-width="1" fill="none" fill-rule="evenodd">
        <path d="M18.7011,21 L15.2003,21 C14.20006,21 14,21.4708 14,21.9898 C14,22.9169 15.18686,27.5148 19.5262,33.5959 C22.4191,37.7488 26.4949,40 30.2038,40 C32.4291,40 32.7044,39.5 32.7044,38.6388 L32.7044,35.5 C32.7044,34.5 32.9152,34.3004 33.6198,34.3004 C34.1391,34.3004 35.0292,34.56 37.1062,36.5623 C39.4799,38.9354 39.8712,40 41.2063,40 L44.7071,40 C45.7074,40 46.2075,39.5 45.919,38.5133 C45.6033,37.5299 44.47,36.103 42.9662,34.4117 C42.1502,33.4476 40.9263,32.4094 40.5554,31.8902 C40.0362,31.2228 40.1845,30.9261 40.5554,30.3329 C40.5554,30.3329 44.8206,24.3259 45.2657,22.2866 C45.4882,21.5449 45.2657,21 44.207,21 L40.7062,21 C39.8161,21 39.4057,21.4708 39.1831,21.9898 C39.1831,21.9898 37.4029,26.3282 34.8809,29.1463 C34.0649,29.962 33.694,30.2216 33.2489,30.2216 C33.0264,30.2216 32.7043,29.962 32.7043,29.2205 L32.7043,22.2866 C32.7043,21.3966 32.446,21 31.7041,21 L26.2028,21 C25.6466,21 25.312,21.413 25.312,21.8045 C25.312,22.6481 26.573,22.8427 26.703,25.2158 L26.703,30.37 C26.703,31.5 26.4988,31.7049 26.0538,31.7049 C24.867,31.7049 21.9801,27.3471 20.2679,22.3607 C19.9324,21.3915 19.5958,21 18.7011,21 L18.7011,21 Z" id="Path-Copy" fill="#FFFFFF"></path>
    </g>
</svg>