<?xml version="1.0" encoding="UTF-8"?>
<svg width="330px" height="330px" viewBox="0 0 330 330" version="1.1" xmlns="http://www.w3.org/2000/svg" xmlns:xlink="http://www.w3.org/1999/xlink">
    <title>Artboard</title>
    <g id="Artboard" stroke="none" stroke-width="1" fill="none" fill-rule="evenodd">
        <g id="logo" transform="translate(4.000000, 1.000000)">
            <path d="M67.792,191.312 C68.752,191.312 69.588,191.144 70.3,190.808 C71.012,190.472 71.616,190.024 72.112,189.464 L72.112,189.464 L70.624,188.12 C70.32,188.52 69.932,188.84 69.46,189.08 C68.988,189.32 68.44,189.44 67.816,189.44 C67.224,189.44 66.688,189.332 66.208,189.116 C65.728,188.9 65.32,188.608 64.984,188.24 C64.648,187.872 64.388,187.432 64.204,186.92 C64.02,186.408 63.928,185.864 63.928,185.288 C63.928,184.712 64.02,184.168 64.204,183.656 C64.388,183.144 64.648,182.704 64.984,182.336 C65.32,181.968 65.728,181.676 66.208,181.46 C66.688,181.244 67.224,181.136 67.816,181.136 C68.376,181.136 68.9,181.26 69.388,181.508 C69.876,181.756 70.248,182.08 70.504,182.48 L70.504,182.48 L72.04,181.136 C71.56,180.528 70.928,180.064 70.144,179.744 C69.36,179.424 68.576,179.264 67.792,179.264 C66.88,179.264 66.044,179.412 65.284,179.708 C64.524,180.004 63.876,180.42 63.34,180.956 C62.804,181.492 62.384,182.128 62.08,182.864 C61.776,183.6 61.624,184.408 61.624,185.288 C61.624,186.168 61.776,186.976 62.08,187.712 C62.384,188.448 62.804,189.084 63.34,189.62 C63.876,190.156 64.524,190.572 65.284,190.868 C66.044,191.164 66.88,191.312 67.792,191.312 Z M80.136,191 L80.136,181.376 L84.144,181.376 L84.144,179.576 L74.112,179.576 L74.112,181.376 L77.904,181.376 L77.904,191 L80.136,191 Z M88.28,196.76 C88.968,196.76 89.54,196.652 89.996,196.436 C90.452,196.22 90.84,195.912 91.16,195.512 C91.48,195.112 91.764,194.64 92.012,194.096 C92.26,193.552 92.512,192.952 92.768,192.296 L92.768,192.296 L97.784,179.576 L95.384,179.576 L92.192,188.6 L92.12,188.6 L88.616,179.576 L86.144,179.576 L90.992,190.928 L90.2,192.944 C89.976,193.552 89.708,194.02 89.396,194.348 C89.084,194.676 88.648,194.84 88.088,194.84 C87.864,194.84 87.648,194.82 87.44,194.78 C87.232,194.74 87.04,194.688 86.864,194.624 L86.864,194.624 L86.624,196.592 C86.88,196.64 87.152,196.68 87.44,196.712 C87.728,196.744 88.008,196.76 88.28,196.76 Z M101.488,194.336 L101.488,191 L111.112,191 L111.112,194.336 L113.128,194.336 L113.128,189.176 L111.208,189.176 L107.56,179.576 L105.256,179.576 L101.32,189.176 L99.472,189.176 L99.472,194.336 L101.488,194.336 Z M108.976,189.176 L103.6,189.176 L105.712,183.632 L106.432,182.168 L108.976,189.176 Z M118.728,191 L125.208,182.432 L125.208,191 L127.464,191 L127.464,179.576 L125.208,179.576 L118.728,187.904 L118.728,179.576 L116.472,179.576 L116.472,191 L118.728,191 Z M134.336,191 C134.496,189.464 134.876,188.328 135.476,187.592 C136.076,186.856 136.928,186.488 138.032,186.488 L138.032,186.488 L139.688,186.488 L139.688,191 L141.896,191 L141.896,179.576 L137.12,179.576 C136.432,179.576 135.8,179.64 135.224,179.768 C134.648,179.896 134.156,180.092 133.748,180.356 C133.34,180.62 133.02,180.956 132.788,181.364 C132.556,181.772 132.44,182.256 132.44,182.816 C132.44,183.744 132.708,184.424 133.244,184.856 C133.78,185.288 134.448,185.544 135.248,185.624 L135.248,185.624 L135.248,185.696 C134.32,185.984 133.564,186.592 132.98,187.52 C132.396,188.448 132.024,189.608 131.864,191 L131.864,191 L134.336,191 Z M139.688,184.664 L137.576,184.664 C137.176,184.664 136.8,184.644 136.448,184.604 C136.096,184.564 135.792,184.488 135.536,184.376 C135.28,184.264 135.076,184.104 134.924,183.896 C134.772,183.688 134.696,183.416 134.696,183.08 C134.696,182.728 134.764,182.444 134.9,182.228 C135.036,182.012 135.228,181.848 135.476,181.736 C135.724,181.624 136.024,181.552 136.376,181.52 C136.728,181.488 137.12,181.472 137.552,181.472 L137.552,181.472 L139.688,181.472 L139.688,184.664 Z M159.888,191.312 C160.848,191.312 161.684,191.144 162.396,190.808 C163.108,190.472 163.712,190.024 164.208,189.464 L164.208,189.464 L162.72,188.12 C162.416,188.52 162.028,188.84 161.556,189.08 C161.084,189.32 160.536,189.44 159.912,189.44 C159.32,189.44 158.784,189.332 158.304,189.116 C157.824,188.9 157.416,188.608 157.08,188.24 C156.744,187.872 156.484,187.432 156.3,186.92 C156.116,186.408 156.024,185.864 156.024,185.288 C156.024,184.712 156.116,184.168 156.3,183.656 C156.484,183.144 156.744,182.704 157.08,182.336 C157.416,181.968 157.824,181.676 158.304,181.46 C158.784,181.244 159.32,181.136 159.912,181.136 C160.472,181.136 160.996,181.26 161.484,181.508 C161.972,181.756 162.344,182.08 162.6,182.48 L162.6,182.48 L164.136,181.136 C163.656,180.528 163.024,180.064 162.24,179.744 C161.456,179.424 160.672,179.264 159.888,179.264 C158.976,179.264 158.14,179.412 157.38,179.708 C156.62,180.004 155.972,180.42 155.436,180.956 C154.9,181.492 154.48,182.128 154.176,182.864 C153.872,183.6 153.72,184.408 153.72,185.288 C153.72,186.168 153.872,186.976 154.176,187.712 C154.48,188.448 154.9,189.084 155.436,189.62 C155.972,190.156 156.62,190.572 157.38,190.868 C158.14,191.164 158.976,191.312 159.888,191.312 Z M173.288,191.312 C174.168,191.312 174.984,191.164 175.736,190.868 C176.488,190.572 177.14,190.156 177.692,189.62 C178.244,189.084 178.676,188.448 178.988,187.712 C179.3,186.976 179.456,186.168 179.456,185.288 C179.456,184.408 179.3,183.6 178.988,182.864 C178.676,182.128 178.244,181.492 177.692,180.956 C177.14,180.42 176.488,180.004 175.736,179.708 C174.984,179.412 174.168,179.264 173.288,179.264 C172.408,179.264 171.596,179.412 170.852,179.708 C170.108,180.004 169.46,180.42 168.908,180.956 C168.356,181.492 167.924,182.128 167.612,182.864 C167.3,183.6 167.144,184.408 167.144,185.288 C167.144,186.168 167.3,186.976 167.612,187.712 C167.924,188.448 168.356,189.084 168.908,189.62 C169.46,190.156 170.108,190.572 170.852,190.868 C171.596,191.164 172.408,191.312 173.288,191.312 Z M173.288,189.44 C172.68,189.44 172.136,189.328 171.656,189.104 C171.176,188.88 170.768,188.58 170.432,188.204 C170.096,187.828 169.84,187.388 169.664,186.884 C169.488,186.38 169.4,185.848 169.4,185.288 C169.4,184.712 169.488,184.172 169.664,183.668 C169.84,183.164 170.096,182.724 170.432,182.348 C170.768,181.972 171.176,181.676 171.656,181.46 C172.136,181.244 172.68,181.136 173.288,181.136 C173.896,181.136 174.44,181.244 174.92,181.46 C175.4,181.676 175.808,181.972 176.144,182.348 C176.48,182.724 176.74,183.164 176.924,183.668 C177.108,184.172 177.2,184.712 177.2,185.288 C177.2,185.848 177.108,186.38 176.924,186.884 C176.74,187.388 176.48,187.828 176.144,188.204 C175.808,188.58 175.4,188.88 174.92,189.104 C174.44,189.328 173.896,189.44 173.288,189.44 Z M189.496,191.312 C190.312,191.312 191.08,191.176 191.8,190.904 C192.52,190.632 193.148,190.244 193.684,189.74 C194.22,189.236 194.644,188.628 194.956,187.916 C195.268,187.204 195.424,186.4 195.424,185.504 C195.424,184.624 195.284,183.828 195.004,183.116 C194.724,182.404 194.332,181.796 193.828,181.292 C193.324,180.788 192.724,180.4 192.028,180.128 C191.332,179.856 190.568,179.72 189.736,179.72 C188.92,179.72 188.164,179.88 187.468,180.2 C186.772,180.52 186.216,180.96 185.8,181.52 C185.912,180.656 186.092,179.872 186.34,179.168 C186.588,178.464 186.932,177.864 187.372,177.368 C187.812,176.872 188.38,176.492 189.076,176.228 C189.772,175.964 190.624,175.832 191.632,175.832 L191.632,175.832 L195.088,175.832 L195.088,174.032 L191.68,174.032 C190.304,174.032 189.12,174.228 188.128,174.62 C187.136,175.012 186.316,175.612 185.668,176.42 C185.02,177.228 184.524,178.244 184.18,179.468 C183.836,180.692 183.632,182.136 183.568,183.8 L183.568,183.8 L183.568,184.604 C183.568,184.868 183.584,185.128 183.616,185.384 C183.664,186.312 183.84,187.144 184.144,187.88 C184.448,188.616 184.856,189.236 185.368,189.74 C185.88,190.244 186.484,190.632 187.18,190.904 C187.876,191.176 188.648,191.312 189.496,191.312 Z M189.568,189.44 C188.992,189.44 188.468,189.34 187.996,189.14 C187.524,188.94 187.124,188.66 186.796,188.3 C186.468,187.94 186.212,187.508 186.028,187.004 C185.844,186.5 185.752,185.944 185.752,185.336 C185.752,184.712 185.856,184.164 186.064,183.692 C186.272,183.22 186.548,182.828 186.892,182.516 C187.236,182.204 187.64,181.968 188.104,181.808 C188.568,181.648 189.056,181.568 189.568,181.568 C190.112,181.568 190.604,181.668 191.044,181.868 C191.484,182.068 191.864,182.34 192.184,182.684 C192.504,183.028 192.752,183.44 192.928,183.92 C193.104,184.4 193.192,184.928 193.192,185.504 C193.192,186.048 193.112,186.556 192.952,187.028 C192.792,187.5 192.556,187.916 192.244,188.276 C191.932,188.636 191.552,188.92 191.104,189.128 C190.656,189.336 190.144,189.44 189.568,189.44 Z M204.264,191 C205.912,191 207.148,190.66 207.972,189.98 C208.796,189.3 209.208,188.368 209.208,187.184 C209.208,186.608 209.12,186.088 208.944,185.624 C208.768,185.16 208.484,184.764 208.092,184.436 C207.7,184.108 207.188,183.856 206.556,183.68 C205.924,183.504 205.152,183.416 204.24,183.416 L204.24,183.416 L202.2,183.416 L202.2,179.576 L199.968,179.576 L199.968,191 L204.264,191 Z M212.784,191 L212.784,179.576 L210.552,179.576 L210.552,191 L212.784,191 Z M204.192,189.32 L202.2,189.32 L202.2,185.072 L204.12,185.072 C204.52,185.072 204.892,185.104 205.236,185.168 C205.58,185.232 205.88,185.344 206.136,185.504 C206.392,185.664 206.592,185.88 206.736,186.152 C206.88,186.424 206.952,186.768 206.952,187.184 C206.952,188.016 206.696,188.58 206.184,188.876 C205.672,189.172 205.008,189.32 204.192,189.32 L204.192,189.32 Z M222.44,191 L222.44,181.376 L226.448,181.376 L226.448,179.576 L216.416,179.576 L216.416,181.376 L220.208,181.376 L220.208,191 L222.44,191 Z M232.336,191 L238.816,182.432 L238.816,191 L241.072,191 L241.072,179.576 L238.816,179.576 L232.336,187.904 L232.336,179.576 L230.08,179.576 L230.08,191 L232.336,191 Z M251.976,177.152 C252.472,177.152 252.936,177.084 253.368,176.948 C253.8,176.812 254.184,176.632 254.52,176.408 C254.856,176.184 255.14,175.924 255.372,175.628 C255.604,175.332 255.784,175.016 255.912,174.68 L255.912,174.68 L254.592,174.032 C254.416,174.528 254.096,174.944 253.632,175.28 C253.168,175.616 252.616,175.784 251.976,175.784 C251.336,175.784 250.784,175.616 250.32,175.28 C249.856,174.944 249.536,174.528 249.36,174.032 L249.36,174.032 L248.04,174.68 C248.152,175.016 248.328,175.332 248.568,175.628 C248.808,175.924 249.096,176.184 249.432,176.408 C249.768,176.632 250.148,176.812 250.572,176.948 C250.996,177.084 251.464,177.152 251.976,177.152 Z M248.568,191 L255.048,182.432 L255.048,191 L257.304,191 L257.304,179.576 L255.048,179.576 L248.568,187.904 L248.568,179.576 L246.312,179.576 L246.312,191 L248.568,191 Z" id="студиясобытий" fill="#5B5B5E" fill-rule="nonzero"></path>
            <path d="M14.93,165.72 C17.25,165.72 19.42,165.26 21.44,164.34 C23.46,163.42 25.31,161.9 26.99,159.78 L26.99,159.78 L23.93,157.38 C23.13,158.66 21.96,159.79 20.42,160.77 C18.88,161.75 17.05,162.24 14.93,162.24 C13.49,162.24 12.15,161.97 10.91,161.43 C9.67,160.89 8.59,160.16 7.67,159.24 C6.75,158.32 6.03,157.24 5.51,156 C4.99,154.76 4.71,153.44 4.67,152.04 L4.67,152.04 L27.95,152.04 C27.99,151.68 28.01,151.34 28.01,151.02 L28.01,151.02 L28.01,150.12 C28.01,148.2 27.72,146.4 27.14,144.72 C26.56,143.04 25.71,141.57 24.59,140.31 C23.47,139.05 22.07,138.05 20.39,137.31 C18.71,136.57 16.77,136.2 14.57,136.2 C12.57,136.2 10.71,136.57 8.99,137.31 C7.27,138.05 5.77,139.08 4.49,140.4 C3.21,141.72 2.21,143.28 1.49,145.08 C0.77,146.88 0.41,148.84 0.41,150.96 C0.41,153.08 0.78,155.04 1.52,156.84 C2.26,158.64 3.27,160.2 4.55,161.52 C5.83,162.84 7.36,163.87 9.14,164.61 C10.92,165.35 12.85,165.72 14.93,165.72 Z M23.87,148.8 L4.73,148.8 C4.81,147.6 5.11,146.45 5.63,145.35 C6.15,144.25 6.85,143.27 7.73,142.41 C8.61,141.55 9.63,140.87 10.79,140.37 C11.95,139.87 13.21,139.62 14.57,139.62 C17.49,139.62 19.74,140.49 21.32,142.23 C22.9,143.97 23.75,146.16 23.87,148.8 L23.87,148.8 Z M49.73,165.72 C52.17,165.72 54.26,165.28 56,164.4 C57.74,163.52 59.21,162.34 60.41,160.86 L60.41,160.86 L57.35,158.58 C56.55,159.66 55.53,160.54 54.29,161.22 C53.05,161.9 51.53,162.24 49.73,162.24 C48.09,162.24 46.61,161.95 45.29,161.37 C43.97,160.79 42.85,159.99 41.93,158.97 C41.01,157.95 40.3,156.76 39.8,155.4 C39.3,154.04 39.05,152.56 39.05,150.96 C39.05,149.36 39.3,147.87 39.8,146.49 C40.3,145.11 41.02,143.91 41.96,142.89 C42.9,141.87 44.03,141.07 45.35,140.49 C46.67,139.91 48.15,139.62 49.79,139.62 C51.31,139.62 52.72,139.97 54.02,140.67 C55.32,141.37 56.31,142.26 56.99,143.34 L56.99,143.34 L60.17,141.06 C58.97,139.46 57.4,138.25 55.46,137.43 C53.52,136.61 51.61,136.2 49.73,136.2 C47.45,136.2 45.39,136.57 43.55,137.31 C41.71,138.05 40.14,139.08 38.84,140.4 C37.54,141.72 36.53,143.28 35.81,145.08 C35.09,146.88 34.73,148.84 34.73,150.96 C34.73,153.08 35.09,155.04 35.81,156.84 C36.53,158.64 37.54,160.2 38.84,161.52 C40.14,162.84 41.71,163.87 43.55,164.61 C45.39,165.35 47.45,165.72 49.73,165.72 Z M76.01,165 L76.01,140.34 L86.63,140.34 L86.63,136.92 L61.97,136.92 L61.97,140.34 L71.93,140.34 L71.93,165 L76.01,165 Z M103.67,165 C105.51,165 107.12,164.76 108.5,164.28 C109.88,163.8 111.04,163.14 111.98,162.3 C112.92,161.46 113.63,160.48 114.11,159.36 C114.59,158.24 114.83,157.04 114.83,155.76 C114.83,154.48 114.63,153.28 114.23,152.16 C113.83,151.04 113.18,150.07 112.28,149.25 C111.38,148.43 110.2,147.79 108.74,147.33 C107.28,146.87 105.51,146.64 103.43,146.64 L103.43,146.64 L96.47,146.64 L96.47,136.92 L92.39,136.92 L92.39,165 L103.67,165 Z M102.71,161.7 L96.47,161.7 L96.47,149.88 L102.53,149.88 C103.65,149.88 104.7,149.97 105.68,150.15 C106.66,150.33 107.51,150.64 108.23,151.08 C108.95,151.52 109.51,152.12 109.91,152.88 C110.31,153.64 110.51,154.6 110.51,155.76 C110.51,156.92 110.32,157.88 109.94,158.64 C109.56,159.4 109.02,160.01 108.32,160.47 C107.62,160.93 106.79,161.25 105.83,161.43 C104.87,161.61 103.83,161.7 102.71,161.7 L102.71,161.7 Z M142.07,165 L142.07,140.34 L157.61,140.34 L157.61,165 L161.69,165 L161.69,136.92 L137.99,136.92 L137.99,165 L142.07,165 Z M185.15,165.72 C187.35,165.72 189.37,165.35 191.21,164.61 C193.05,163.87 194.63,162.84 195.95,161.52 C197.27,160.2 198.3,158.64 199.04,156.84 C199.78,155.04 200.15,153.08 200.15,150.96 C200.15,148.84 199.78,146.88 199.04,145.08 C198.3,143.28 197.27,141.72 195.95,140.4 C194.63,139.08 193.05,138.05 191.21,137.31 C189.37,136.57 187.35,136.2 185.15,136.2 C182.99,136.2 180.99,136.57 179.15,137.31 C177.31,138.05 175.73,139.08 174.41,140.4 C173.09,141.72 172.06,143.28 171.32,145.08 C170.58,146.88 170.21,148.84 170.21,150.96 C170.21,153.08 170.58,155.04 171.32,156.84 C172.06,158.64 173.09,160.2 174.41,161.52 C175.73,162.84 177.31,163.87 179.15,164.61 C180.99,165.35 182.99,165.72 185.15,165.72 Z M185.15,162.24 C183.51,162.24 182.04,161.95 180.74,161.37 C179.44,160.79 178.33,159.99 177.41,158.97 C176.49,157.95 175.78,156.75 175.28,155.37 C174.78,153.99 174.53,152.52 174.53,150.96 C174.53,149.4 174.78,147.93 175.28,146.55 C175.78,145.17 176.49,143.97 177.41,142.95 C178.33,141.93 179.44,141.12 180.74,140.52 C182.04,139.92 183.51,139.62 185.15,139.62 C186.79,139.62 188.27,139.92 189.59,140.52 C190.91,141.12 192.03,141.93 192.95,142.95 C193.87,143.97 194.58,145.17 195.08,146.55 C195.58,147.93 195.83,149.4 195.83,150.96 C195.83,152.52 195.58,153.99 195.08,155.37 C194.58,156.75 193.87,157.95 192.95,158.97 C192.03,159.99 190.91,160.79 189.59,161.37 C188.27,161.95 186.79,162.24 185.15,162.24 Z M221.51,165 C225.19,165 227.97,164.32 229.85,162.96 C231.73,161.6 232.67,159.78 232.67,157.5 C232.67,156.34 232.47,155.35 232.07,154.53 C231.67,153.71 231.12,153.03 230.42,152.49 C229.72,151.95 228.91,151.54 227.99,151.26 C227.07,150.98 226.09,150.8 225.05,150.72 C225.89,150.48 226.69,150.22 227.45,149.94 C228.21,149.66 228.88,149.29 229.46,148.83 C230.04,148.37 230.49,147.79 230.81,147.09 C231.13,146.39 231.29,145.52 231.29,144.48 C231.29,142.2 230.43,140.37 228.71,138.99 C226.99,137.61 224.35,136.92 220.79,136.92 L220.79,136.92 L208.67,136.92 L208.67,165 L221.51,165 Z M220.55,149.34 L212.75,149.34 L212.75,140.22 L217.85,140.22 C219.21,140.22 220.45,140.26 221.57,140.34 C222.69,140.42 223.65,140.61 224.45,140.91 C225.25,141.21 225.87,141.66 226.31,142.26 C226.75,142.86 226.97,143.68 226.97,144.72 C226.97,146.56 226.4,147.79 225.26,148.41 C224.12,149.03 222.55,149.34 220.55,149.34 L220.55,149.34 Z M217.97,161.7 L212.75,161.7 L212.75,152.28 L220.37,152.28 C222.77,152.28 224.68,152.58 226.1,153.18 C227.52,153.78 228.23,155.04 228.23,156.96 C228.23,158.12 227.97,159.02 227.45,159.66 C226.93,160.3 226.21,160.77 225.29,161.07 C224.37,161.37 223.29,161.55 222.05,161.61 C220.81,161.67 219.45,161.7 217.97,161.7 L217.97,161.7 Z M254.27,165.72 C256.47,165.72 258.49,165.35 260.33,164.61 C262.17,163.87 263.75,162.84 265.07,161.52 C266.39,160.2 267.42,158.64 268.16,156.84 C268.9,155.04 269.27,153.08 269.27,150.96 C269.27,148.84 268.9,146.88 268.16,145.08 C267.42,143.28 266.39,141.72 265.07,140.4 C263.75,139.08 262.17,138.05 260.33,137.31 C258.49,136.57 256.47,136.2 254.27,136.2 C252.11,136.2 250.11,136.57 248.27,137.31 C246.43,138.05 244.85,139.08 243.53,140.4 C242.21,141.72 241.18,143.28 240.44,145.08 C239.7,146.88 239.33,148.84 239.33,150.96 C239.33,153.08 239.7,155.04 240.44,156.84 C241.18,158.64 242.21,160.2 243.53,161.52 C244.85,162.84 246.43,163.87 248.27,164.61 C250.11,165.35 252.11,165.72 254.27,165.72 Z M254.27,162.24 C252.63,162.24 251.16,161.95 249.86,161.37 C248.56,160.79 247.45,159.99 246.53,158.97 C245.61,157.95 244.9,156.75 244.4,155.37 C243.9,153.99 243.65,152.52 243.65,150.96 C243.65,149.4 243.9,147.93 244.4,146.55 C244.9,145.17 245.61,143.97 246.53,142.95 C247.45,141.93 248.56,141.12 249.86,140.52 C251.16,139.92 252.63,139.62 254.27,139.62 C255.91,139.62 257.39,139.92 258.71,140.52 C260.03,141.12 261.15,141.93 262.07,142.95 C262.99,143.97 263.7,145.17 264.2,146.55 C264.7,147.93 264.95,149.4 264.95,150.96 C264.95,152.52 264.7,153.99 264.2,155.37 C263.7,156.75 262.99,157.95 262.07,158.97 C261.15,159.99 260.03,160.79 258.71,161.37 C257.39,161.95 255.91,162.24 254.27,162.24 Z M276.65,173.34 L276.65,165 L301.31,165 L301.31,173.34 L305.27,173.34 L305.27,161.46 L300.59,161.46 L291.05,136.92 L287.45,136.92 L277.13,161.46 L272.63,161.46 L272.63,173.34 L276.65,173.34 Z M296.51,161.46 L281.27,161.46 L289.13,141.84 L296.51,161.46 Z M317.27,153.48 L317.27,122.52 L312.95,122.52 L312.95,153.48 L317.27,153.48 Z M315.11,165.36 C316.07,165.36 316.85,165.03 317.45,164.37 C318.05,163.71 318.35,162.96 318.35,162.12 C318.35,161.28 318.05,160.53 317.45,159.87 C316.85,159.21 316.07,158.88 315.11,158.88 C314.15,158.88 313.37,159.21 312.77,159.87 C312.17,160.53 311.87,161.28 311.87,162.12 C311.87,162.96 312.17,163.71 312.77,164.37 C313.37,165.03 314.15,165.36 315.11,165.36 Z" id="естьповод!" fill="#2F2F31" fill-rule="nonzero"></path>
            <g id="top" transform="translate(10.000000, 0.000000)" fill="#221A56">
                <circle id="Oval" cx="2.5" cy="110.5" r="2.5"></circle>
                <circle id="Oval-Copy" cx="58.5" cy="108.5" r="2.5"></circle>
                <circle id="Oval-Copy-33" cx="38" cy="90" r="4"></circle>
                <circle id="Oval-Copy-34" cx="81" cy="57" r="4"></circle>
                <circle id="Oval-Copy-38" cx="182" cy="106" r="3"></circle>
                <circle id="Oval-Copy-36" cx="137" cy="106" r="4"></circle>
                <circle id="Oval-Copy-37" cx="137" cy="65" r="4"></circle>
                <circle id="Oval-Copy-39" cx="256" cy="109" r="4"></circle>
                <circle id="Oval-Copy-40" cx="214" cy="89" r="3"></circle>
                <circle id="Oval-Copy-41" cx="273" cy="81" r="3"></circle>
                <circle id="Oval-Copy-35" cx="81" cy="89" r="3"></circle>
                <circle id="Oval-Copy-2" cx="103.5" cy="106.5" r="2.5"></circle>
                <circle id="Oval-Copy-3" cx="61.5" cy="78.5" r="2.5"></circle>
                <circle id="Oval-Copy-4" cx="24.5" cy="68.5" r="2.5"></circle>
                <circle id="Oval-Copy-5" cx="108.5" cy="85.5" r="2.5"></circle>
                <circle id="Oval-Copy-6" cx="166.5" cy="92.5" r="2.5"></circle>
                <circle id="Oval-Copy-7" cx="211.5" cy="105.5" r="2.5"></circle>
                <circle id="Oval-Copy-8" cx="184.5" cy="66.5" r="2.5"></circle>
                <circle id="Oval-Copy-9" cx="166.5" cy="48.5" r="2.5"></circle>
                <circle id="Oval-Copy-10" cx="228.5" cy="53.5" r="2.5"></circle>
                <circle id="Oval-Copy-11" cx="261.5" cy="46.5" r="2.5"></circle>
                <circle id="Oval-Copy-12" cx="281.5" cy="73.5" r="2.5"></circle>
                <circle id="Oval-Copy-13" cx="297.5" cy="106.5" r="2.5"></circle>
                <circle id="Oval-Copy-14" cx="202.5" cy="76.5" r="2.5"></circle>
                <circle id="Oval-Copy-15" cx="122.5" cy="25.5" r="2.5"></circle>
                <circle id="Oval-Copy-16" cx="106.5" cy="15.5" r="1.5"></circle>
                <circle id="Oval-Copy-17" cx="150.5" cy="1.5" r="1.5"></circle>
                <circle id="Oval-Copy-18" cx="149.5" cy="21.5" r="1.5"></circle>
                <circle id="Oval-Copy-19" cx="182.5" cy="21.5" r="1.5"></circle>
                <circle id="Oval-Copy-47" cx="205.5" cy="12.5" r="1.5"></circle>
                <circle id="Oval-Copy-20" cx="206.5" cy="34.5" r="1.5"></circle>
                <circle id="Oval-Copy-21" cx="200.5" cy="56.5" r="1.5"></circle>
                <circle id="Oval-Copy-22" cx="227.5" cy="26.5" r="1.5"></circle>
                <circle id="Oval-Copy-23" cx="56.5" cy="34.5" r="1.5"></circle>
                <circle id="Oval-Copy-24" cx="48.5" cy="56.5" r="1.5"></circle>
                <circle id="Oval-Copy-25" cx="111.5" cy="67.5" r="1.5"></circle>
                <circle id="Oval-Copy-31" cx="112.5" cy="46.5" r="1.5"></circle>
                <circle id="Oval-Copy-46" cx="131.5" cy="9.5" r="1.5"></circle>
                <circle id="Oval-Copy-26" cx="13.5" cy="83.5" r="1.5"></circle>
                <circle id="Oval-Copy-27" cx="27.5" cy="112.5" r="1.5"></circle>
                <circle id="Oval-Copy-28" cx="59" cy="89" r="1"></circle>
                <circle id="Oval-Copy-29" cx="73" cy="43" r="1"></circle>
                <circle id="Oval-Copy-32" cx="127" cy="85" r="1"></circle>
                <circle id="Oval-Copy-42" cx="162" cy="79" r="1"></circle>
                <circle id="Oval-Copy-43" cx="236" cy="80" r="1"></circle>
                <circle id="Oval-Copy-44" cx="244" cy="93" r="1"></circle>
                <circle id="Oval-Copy-45" cx="265" cy="69" r="1"></circle>
                <circle id="Oval-Copy-30" cx="68" cy="25" r="1"></circle>
            </g>
            <g id="bottom" transform="translate(160.000000, 271.000000) rotate(180.000000) translate(-160.000000, -271.000000) translate(10.000000, 214.000000)" fill="#221A56">
                <circle id="Oval" cx="2.5" cy="110.5" r="2.5"></circle>
                <circle id="Oval-Copy" cx="58.5" cy="108.5" r="2.5"></circle>
                <circle id="Oval-Copy-33" cx="38" cy="90" r="4"></circle>
                <circle id="Oval-Copy-34" cx="81" cy="57" r="4"></circle>
                <circle id="Oval-Copy-38" cx="182" cy="106" r="3"></circle>
                <circle id="Oval-Copy-36" cx="137" cy="106" r="4"></circle>
                <circle id="Oval-Copy-37" cx="137" cy="65" r="4"></circle>
                <circle id="Oval-Copy-39" cx="256" cy="109" r="4"></circle>
                <circle id="Oval-Copy-40" cx="214" cy="89" r="3"></circle>
                <circle id="Oval-Copy-41" cx="273" cy="81" r="3"></circle>
                <circle id="Oval-Copy-35" cx="81" cy="89" r="3"></circle>
                <circle id="Oval-Copy-2" cx="103.5" cy="106.5" r="2.5"></circle>
                <circle id="Oval-Copy-3" cx="61.5" cy="78.5" r="2.5"></circle>
                <circle id="Oval-Copy-4" cx="24.5" cy="68.5" r="2.5"></circle>
                <circle id="Oval-Copy-5" cx="108.5" cy="85.5" r="2.5"></circle>
                <circle id="Oval-Copy-6" cx="166.5" cy="92.5" r="2.5"></circle>
                <circle id="Oval-Copy-7" cx="211.5" cy="105.5" r="2.5"></circle>
                <circle id="Oval-Copy-8" cx="184.5" cy="66.5" r="2.5"></circle>
                <circle id="Oval-Copy-9" cx="166.5" cy="48.5" r="2.5"></circle>
                <circle id="Oval-Copy-10" cx="228.5" cy="53.5" r="2.5"></circle>
                <circle id="Oval-Copy-11" cx="261.5" cy="46.5" r="2.5"></circle>
                <circle id="Oval-Copy-12" cx="281.5" cy="73.5" r="2.5"></circle>
                <circle id="Oval-Copy-13" cx="297.5" cy="106.5" r="2.5"></circle>
                <circle id="Oval-Copy-14" cx="202.5" cy="76.5" r="2.5"></circle>
                <circle id="Oval-Copy-15" cx="122.5" cy="25.5" r="2.5"></circle>
                <circle id="Oval-Copy-16" cx="106.5" cy="15.5" r="1.5"></circle>
                <circle id="Oval-Copy-17" cx="150.5" cy="1.5" r="1.5"></circle>
                <circle id="Oval-Copy-18" cx="149.5" cy="21.5" r="1.5"></circle>
                <circle id="Oval-Copy-19" cx="182.5" cy="21.5" r="1.5"></circle>
                <circle id="Oval-Copy-47" cx="205.5" cy="12.5" r="1.5"></circle>
                <circle id="Oval-Copy-20" cx="206.5" cy="34.5" r="1.5"></circle>
                <circle id="Oval-Copy-21" cx="200.5" cy="56.5" r="1.5"></circle>
                <circle id="Oval-Copy-22" cx="227.5" cy="26.5" r="1.5"></circle>
                <circle id="Oval-Copy-23" cx="56.5" cy="34.5" r="1.5"></circle>
                <circle id="Oval-Copy-24" cx="48.5" cy="56.5" r="1.5"></circle>
                <circle id="Oval-Copy-25" cx="111.5" cy="67.5" r="1.5"></circle>
                <circle id="Oval-Copy-31" cx="112.5" cy="46.5" r="1.5"></circle>
                <circle id="Oval-Copy-46" cx="131.5" cy="9.5" r="1.5"></circle>
                <circle id="Oval-Copy-26" cx="13.5" cy="83.5" r="1.5"></circle>
                <circle id="Oval-Copy-27" cx="27.5" cy="112.5" r="1.5"></circle>
                <circle id="Oval-Copy-28" cx="59" cy="89" r="1"></circle>
                <circle id="Oval-Copy-29" cx="73" cy="43" r="1"></circle>
                <circle id="Oval-Copy-32" cx="127" cy="85" r="1"></circle>
                <circle id="Oval-Copy-42" cx="162" cy="79" r="1"></circle>
                <circle id="Oval-Copy-43" cx="236" cy="80" r="1"></circle>
                <circle id="Oval-Copy-44" cx="244" cy="93" r="1"></circle>
                <circle id="Oval-Copy-45" cx="265" cy="69" r="1"></circle>
                <circle id="Oval-Copy-30" cx="68" cy="25" r="1"></circle>
            </g>
        </g>
    </g>
</svg>